solid body
facet normal 0 0 1
  outer loop 
     vertex 0.00469846 -0.0017101 0.4
     vertex 0.00492404 -0.000868241 0.4
     vertex 0 0 0.4
  endloop 
endfacet 
facet normal 0 0 1
  outer loop 
     vertex 0.00492404 -0.000868241 0.4
     vertex 0.005 0 0.4
     vertex 0 0 0.4
  endloop 
endfacet 
facet normal 0 0 1
  outer loop 
     vertex 0 0 0.4
     vertex 0.005 0 0.4
     vertex 0.00492404 0.000868241 0.4
  endloop 
endfacet 
facet normal 0 0 1
  outer loop 
     vertex 0.00321394 -0.00383022 0.4
     vertex 0.00383022 -0.00321394 0.4
     vertex 0 0 0.4
  endloop 
endfacet 
facet normal 0 0 1
  outer loop 
     vertex 0.00383022 -0.00321394 0.4
     vertex 0.00433013 -0.0025 0.4
     vertex 0 0 0.4
  endloop 
endfacet 
facet normal 0 0 1
  outer loop 
     vertex 0 0 0.4
     vertex 0.00433013 -0.0025 0.4
     vertex 0.00469846 -0.0017101 0.4
  endloop 
endfacet 
facet normal 0 0 1
  outer loop 
     vertex 0.000868241 -0.00492404 0.4
     vertex 0.0017101 -0.00469846 0.4
     vertex 0 0 0.4
  endloop 
endfacet 
facet normal 0 0 1
  outer loop 
     vertex 0.0017101 -0.00469846 0.4
     vertex 0.0025 -0.00433013 0.4
     vertex 0 0 0.4
  endloop 
endfacet 
facet normal 0 0 1
  outer loop 
     vertex 0 0 0.4
     vertex 0.0025 -0.00433013 0.4
     vertex 0.00321394 -0.00383022 0.4
  endloop 
endfacet 
facet normal 0 0 1
  outer loop 
     vertex -0.0017101 -0.00469846 0.4
     vertex -0.000868241 -0.00492404 0.4
     vertex 0 0 0.4
  endloop 
endfacet 
facet normal 0 0 1
  outer loop 
     vertex -0.000868241 -0.00492404 0.4
     vertex -6.93889e-19 -0.005 0.4
     vertex 0 0 0.4
  endloop 
endfacet 
facet normal 0 0 1
  outer loop 
     vertex 0 0 0.4
     vertex -6.93889e-19 -0.005 0.4
     vertex 0.000868241 -0.00492404 0.4
  endloop 
endfacet 
facet normal 0 0 1
  outer loop 
     vertex -0.00383022 -0.00321394 0.4
     vertex -0.00321394 -0.00383022 0.4
     vertex 0 0 0.4
  endloop 
endfacet 
facet normal 0 0 1
  outer loop 
     vertex -0.00321394 -0.00383022 0.4
     vertex -0.0025 -0.00433013 0.4
     vertex 0 0 0.4
  endloop 
endfacet 
facet normal 0 0 1
  outer loop 
     vertex 0 0 0.4
     vertex -0.0025 -0.00433013 0.4
     vertex -0.0017101 -0.00469846 0.4
  endloop 
endfacet 
facet normal 0 0 1
  outer loop 
     vertex -0.00492404 -0.000868241 0.4
     vertex -0.00469846 -0.0017101 0.4
     vertex 0 0 0.4
  endloop 
endfacet 
facet normal 0 0 1
  outer loop 
     vertex -0.00469846 -0.0017101 0.4
     vertex -0.00433013 -0.0025 0.4
     vertex 0 0 0.4
  endloop 
endfacet 
facet normal 0 0 1
  outer loop 
     vertex 0 0 0.4
     vertex -0.00433013 -0.0025 0.4
     vertex -0.00383022 -0.00321394 0.4
  endloop 
endfacet 
facet normal 0 0 1
  outer loop 
     vertex -0.00469846 0.0017101 0.4
     vertex -0.00492404 0.000868241 0.4
     vertex 0 0 0.4
  endloop 
endfacet 
facet normal 0 0 1
  outer loop 
     vertex -0.00492404 0.000868241 0.4
     vertex -0.005 9.71445e-19 0.4
     vertex 0 0 0.4
  endloop 
endfacet 
facet normal 0 0 1
  outer loop 
     vertex 0 0 0.4
     vertex -0.005 9.71445e-19 0.4
     vertex -0.00492404 -0.000868241 0.4
  endloop 
endfacet 
facet normal 0 0 1
  outer loop 
     vertex -0.00321394 0.00383022 0.4
     vertex -0.00383022 0.00321394 0.4
     vertex 0 0 0.4
  endloop 
endfacet 
facet normal 0 0 1
  outer loop 
     vertex -0.00383022 0.00321394 0.4
     vertex -0.00433013 0.0025 0.4
     vertex 0 0 0.4
  endloop 
endfacet 
facet normal 0 0 1
  outer loop 
     vertex 0 0 0.4
     vertex -0.00433013 0.0025 0.4
     vertex -0.00469846 0.0017101 0.4
  endloop 
endfacet 
facet normal 0 0 1
  outer loop 
     vertex -0.000868241 0.00492404 0.4
     vertex -0.0017101 0.00469846 0.4
     vertex 0 0 0.4
  endloop 
endfacet 
facet normal 0 0 1
  outer loop 
     vertex -0.0017101 0.00469846 0.4
     vertex -0.0025 0.00433013 0.4
     vertex 0 0 0.4
  endloop 
endfacet 
facet normal 0 0 1
  outer loop 
     vertex 0 0 0.4
     vertex -0.0025 0.00433013 0.4
     vertex -0.00321394 0.00383022 0.4
  endloop 
endfacet 
facet normal 0 0 1
  outer loop 
     vertex 0.0017101 0.00469846 0.4
     vertex 0.000868241 0.00492404 0.4
     vertex 0 0 0.4
  endloop 
endfacet 
facet normal 0 0 1
  outer loop 
     vertex 0.000868241 0.00492404 0.4
     vertex 6.93889e-19 0.005 0.4
     vertex 0 0 0.4
  endloop 
endfacet 
facet normal 0 0 1
  outer loop 
     vertex 0 0 0.4
     vertex 6.93889e-19 0.005 0.4
     vertex -0.000868241 0.00492404 0.4
  endloop 
endfacet 
facet normal 0 0 1
  outer loop 
     vertex 0.00383022 0.00321394 0.4
     vertex 0.00321394 0.00383022 0.4
     vertex 0 0 0.4
  endloop 
endfacet 
facet normal 0 0 1
  outer loop 
     vertex 0.00321394 0.00383022 0.4
     vertex 0.0025 0.00433013 0.4
     vertex 0 0 0.4
  endloop 
endfacet 
facet normal 0 0 1
  outer loop 
     vertex 0 0 0.4
     vertex 0.0025 0.00433013 0.4
     vertex 0.0017101 0.00469846 0.4
  endloop 
endfacet 
facet normal 0 0 1
  outer loop 
     vertex 0.00492404 0.000868241 0.4
     vertex 0.00469846 0.0017101 0.4
     vertex 0 0 0.4
  endloop 
endfacet 
facet normal 0 0 1
  outer loop 
     vertex 0.00469846 0.0017101 0.4
     vertex 0.00433013 0.0025 0.4
     vertex 0 0 0.4
  endloop 
endfacet 
facet normal 0 0 1
  outer loop 
     vertex 0 0 0.4
     vertex 0.00433013 0.0025 0.4
     vertex 0.00383022 0.00321394 0.4
  endloop 
endfacet 
endsolid body
